<svg xmlns="http://www.w3.org/2000/svg" viewBox="0 0 400 160" role="img">
  <title>Student Banking logo</title>
  <g fill="#0f385a">
    <polygon points="88 22 24 50 88 78 152 50" />
    <path d="M112 56v29a8 8 0 0 1-4.5 7.2l-17.4 8.7a8 8 0 0 1-7.2 0l-17.4-8.7A8 8 0 0 1 61 85V56l27 12 2 0.9 2-0.9z" />
    <path d="M60 90h56a8 8 0 0 1 8 8v34H52V98a8 8 0 0 1 8-8z" />
    <rect x="52" y="124" width="72" height="12" rx="3" />
    <rect x="64" y="98" width="12" height="24" rx="2" fill="#0c2d47" />
    <rect x="82" y="98" width="12" height="24" rx="2" fill="#0c2d47" />
    <rect x="100" y="98" width="12" height="24" rx="2" fill="#0c2d47" />
    <path d="M128 56.6c0-2 1.6-3.6 3.6-3.6h3.8c2 0 3.6 1.6 3.6 3.6v33.3a2 2 0 0 1-3.4 1.4l-7.6-7.2a2 2 0 0 1-.6-1.4z" />
  </g>
  <text x="176" y="88" font-size="44" font-family="'Inter', 'Segoe UI', sans-serif" fill="#0f385a" font-weight="700" letter-spacing="2">STUDENT</text>
  <text x="176" y="134" font-size="44" font-family="'Inter', 'Segoe UI', sans-serif" fill="#0f385a" font-weight="700" letter-spacing="2">BANKING</text>
</svg>
