<svg xmlns="http://www.w3.org/2000/svg" viewBox="0 0 160 160" role="img">
  <title>Student Bank icon</title>
  <g fill="#0f385a">
    <polygon points="80 18 16 46 80 74 144 46" />
    <path d="M104 52v28.7a8 8 0 0 1-4.5 7.2l-17.4 8.7a8 8 0 0 1-7.2 0l-17.4-8.7A8 8 0 0 1 53 80.7V52l27 12 2 .9 2-.9z" />
    <path d="M52 86h56a8 8 0 0 1 8 8v36H44V94a8 8 0 0 1 8-8z" />
    <rect x="44" y="126" width="72" height="12" rx="3" />
    <rect x="56" y="96" width="12" height="24" rx="2" fill="#0c2d47" />
    <rect x="74" y="96" width="12" height="24" rx="2" fill="#0c2d47" />
    <rect x="92" y="96" width="12" height="24" rx="2" fill="#0c2d47" />
    <path d="M120 52.6c0-2 1.6-3.6 3.6-3.6h3.8c2 0 3.6 1.6 3.6 3.6v33.3a2 2 0 0 1-3.4 1.4l-7.6-7.2a2 2 0 0 1-.6-1.4z" />
  </g>
</svg>
